<svg width="199" height="50" viewBox="0 0 199 50" fill="none" xmlns="http://www.w3.org/2000/svg">
<path d="M0 0.390625H7.61125V12.9315L7.90859 13.2395C8.44409 12.4781 9.08016 11.7973 9.79843 11.2168C10.7167 10.4658 11.74 9.86212 12.8338 9.42611C14.1178 8.91372 15.4859 8.66131 16.8629 8.68274C18.3027 8.69202 19.7281 8.97827 21.0656 9.52673C22.6066 10.1522 24.004 11.1012 25.1688 12.3132C26.3336 13.5252 27.2402 14.9736 27.8307 16.5662C28.5425 18.376 28.8991 20.5254 28.9004 23.0142C28.9004 25.5401 28.5106 27.7161 27.731 29.5424C27.0373 31.245 25.9936 32.7729 24.6717 34.0211C23.4939 35.129 22.1281 36.0047 20.6426 36.6044C19.2177 37.1692 17.8487 37.5018 16.5635 37.5018C15.2092 37.4919 13.8686 37.2224 12.6102 36.7071C11.455 36.262 10.3672 35.6501 9.37936 34.8898C8.46537 34.1724 7.8434 33.4386 7.51346 32.6884L7.21412 32.9451L7.09439 37.5018H0V0.390625ZM8.15804 25.9077C8.90115 27.5693 10.2365 28.8736 11.8878 29.5506C12.6633 29.8703 13.491 30.0348 14.3265 30.0352C15.2183 30.0427 16.1036 29.8783 16.9367 29.5506C17.7486 29.2283 18.4935 28.7503 19.1319 28.1419C19.782 27.5214 20.2916 26.7615 20.6246 25.9159C20.9846 24.979 21.1622 23.9785 21.1475 22.9711C21.1611 21.9516 20.9659 20.9406 20.5747 20.0038C20.2107 19.1417 19.6773 18.3663 19.0082 17.7264C18.3701 17.1104 17.6256 16.6228 16.813 16.289C16.0225 15.9619 15.1785 15.7933 14.3265 15.792C13.4485 15.7918 12.5797 15.9771 11.7741 16.3362C10.9615 16.6897 10.2234 17.2023 9.60087 17.8455C8.96668 18.4997 8.45999 19.2727 8.10815 20.1229C7.73796 21.0208 7.55181 21.9876 7.56136 22.9629C7.54478 23.978 7.74863 24.984 8.15804 25.9077Z" fill="#0C0C0D"/>
<path d="M39.968 36.5532C38.2646 35.9147 36.7014 34.9344 35.3691 33.6692C34.0369 32.404 32.9621 30.8792 32.2071 29.1831C31.3956 27.3924 30.9898 25.3533 30.9898 23.0657C30.9562 20.9767 31.3719 18.9059 32.2071 17.0016C32.9778 15.2685 34.0871 13.7173 35.466 12.4449C36.7996 11.2167 38.343 10.2537 40.0179 9.60484C41.6324 8.98407 43.3434 8.67161 45.0668 8.68281C46.8232 8.66555 48.568 8.978 50.2155 9.60484C51.8844 10.2501 53.4199 11.2136 54.7415 12.4449C56.1052 13.7197 57.1977 15.2712 57.9505 17.0016C58.7714 18.91 59.1799 20.979 59.1478 23.0657C59.1478 25.3533 58.7487 27.3924 57.9505 29.1831C57.1977 30.9129 56.1051 32.4637 54.7415 33.7378C53.4238 34.9684 51.8868 35.9245 50.2155 36.5532C46.9103 37.8182 43.2733 37.8182 39.968 36.5532ZM38.8485 25.9591C39.1958 26.8063 39.7032 27.5741 40.3412 28.2179C41.6038 29.4881 43.3012 30.1962 45.0668 30.1893C46.2645 30.2056 47.4462 29.9058 48.4993 29.3186C49.5273 28.7392 50.3728 27.8692 50.9359 26.8113C51.5458 25.667 51.8546 24.3787 51.8319 23.0739C51.8592 21.7485 51.5415 20.4397 50.912 19.2831C50.3298 18.2241 49.4785 17.3481 48.4494 16.749C47.4175 16.151 46.2511 15.8422 45.0668 15.8537C44.1781 15.8507 43.2972 16.0243 42.4725 16.365C41.6634 16.6932 40.928 17.1879 40.3113 17.8189C39.6847 18.4763 39.188 19.2525 38.8485 20.1045C38.4736 21.0455 38.2876 22.0549 38.3017 23.0718C38.2896 24.0626 38.4757 25.0454 38.8485 25.9591Z" fill="#0C0C0D"/>
<path d="M62.1272 0.390625H69.7384V12.9315L70.0378 13.2395C70.5721 12.4771 71.2084 11.7962 71.9276 11.2168C72.8449 10.4654 73.8676 9.86164 74.9609 9.42611C76.245 8.91392 77.6131 8.66152 78.9901 8.68274C80.4305 8.69239 81.8565 8.97862 83.1948 9.52673C84.7353 10.1526 86.1322 11.1018 87.2966 12.3138C88.461 13.5257 89.3674 14.974 89.9579 16.5662C90.6724 18.376 91.0289 20.5254 91.0276 23.0142C91.0276 25.5401 90.6384 27.7161 89.8602 29.5424C89.1673 31.2434 88.1267 32.7709 86.8089 34.0211C85.6304 35.1282 84.2648 36.0037 82.7797 36.6044C81.3529 37.1692 79.9859 37.5018 78.7007 37.5018C77.3458 37.4921 76.0044 37.2226 74.7454 36.7071C73.5897 36.2617 72.5012 35.6498 71.5125 34.8898C70.6012 34.1724 69.9792 33.4386 69.6466 32.6884L69.3493 32.9451L69.2495 37.5018H62.1272V0.390625ZM70.2852 25.9077C71.0283 27.5701 72.3646 28.8746 74.017 29.5506C74.7918 29.8705 75.6189 30.035 76.4537 30.0352C77.3461 30.0425 78.2321 29.8781 79.0659 29.5506C79.8778 29.2285 80.6228 28.7505 81.2611 28.1419C81.9118 27.522 82.4215 26.7619 82.7538 25.9159C83.1147 24.9793 83.2924 23.9785 83.2766 22.9711C83.2902 21.9516 83.0951 20.9406 82.7039 20.0038C82.3399 19.1417 81.8065 18.3663 81.1374 17.7264C80.4993 17.1104 79.7547 16.6228 78.9422 16.289C78.1511 15.9615 77.3064 15.7928 76.4537 15.792C75.5727 15.7885 74.7005 15.9716 73.8913 16.33C73.0818 16.6865 72.3471 17.2012 71.7281 17.8455C71.0974 18.5006 70.5942 19.2736 70.2453 20.1229C69.8751 21.0208 69.689 21.9876 69.6985 22.9629C69.6798 23.9771 69.8802 24.9829 70.2852 25.9077Z" fill="#0C0C0D"/>
<path d="M102.095 36.6045C100.392 35.9663 98.8289 34.9861 97.4969 33.7208C96.1649 32.4556 95.0906 30.9306 94.3363 29.2344C93.5221 27.4437 93.1157 25.4046 93.117 23.117C93.0833 21.0278 93.4997 18.9568 94.3363 17.0529C95.1051 15.3244 96.2109 13.7769 97.5852 12.5064C98.9191 11.2787 100.462 10.3158 102.137 9.66642C103.749 9.02964 105.46 8.69982 107.186 8.69306C108.951 8.68778 110.702 9.01417 112.353 9.65616C114.019 10.3056 115.551 11.2726 116.869 12.5064C118.232 13.7813 119.325 15.3328 120.078 17.0632C120.899 18.9716 121.307 21.0405 121.275 23.1272C121.275 25.4149 120.876 27.454 120.078 29.2447C119.325 30.9745 118.232 32.5253 116.869 33.7994C115.553 35.0252 114.02 35.9777 112.353 36.6045C109.047 37.8695 105.41 37.8695 102.105 36.6045H102.095ZM100.978 25.959C101.495 27.215 102.36 28.2859 103.467 29.037C104.573 29.7882 105.871 30.1862 107.196 30.1811C108.394 30.1976 109.575 29.8978 110.628 29.3104C111.657 28.731 112.502 27.8609 113.065 26.803C113.676 25.6592 113.985 24.3706 113.961 23.0656C113.986 21.7428 113.668 20.4371 113.039 19.2831C112.458 18.2225 111.606 17.3451 110.577 16.7449C109.542 16.1448 108.372 15.836 107.184 15.8496C106.295 15.8465 105.414 16.0201 104.59 16.3609C103.779 16.6891 103.043 17.1854 102.427 17.8189C101.804 18.4771 101.312 19.2533 100.978 20.1045C100.603 21.0455 100.417 22.0549 100.431 23.0718C100.419 24.0626 100.605 25.0454 100.978 25.959Z" fill="#0C0C0D"/>
<path d="M130.369 35.5736C128.229 34.3757 126.438 32.6129 125.18 30.4665C123.905 28.2803 123.247 25.7714 123.281 23.2217C123.281 20.4084 123.905 17.9072 125.155 15.7182C126.385 13.5468 128.169 11.763 130.313 10.5597C132.508 9.30844 134.99 8.6828 137.759 8.6828C139.176 8.6828 140.332 8.8197 141.227 9.0935C142.065 9.35403 142.886 9.67095 143.684 10.0422V13.217C142.862 12.776 142.017 12.3845 141.151 12.0444C140.306 11.7145 139.192 11.5495 137.809 11.5495C135.547 11.5495 133.538 12.0615 131.782 13.0855C130.071 14.0697 128.64 15.4986 127.633 17.2295C126.608 19.029 126.085 21.0848 126.122 23.1704C126.095 25.2195 126.612 27.2375 127.617 29.0065C128.611 30.7429 130.047 32.1667 131.77 33.1238C133.542 34.1314 135.559 34.6352 137.821 34.6352C139.206 34.6352 140.32 34.4524 141.163 34.0869C142.007 33.7214 142.847 33.3305 143.684 32.9143V35.9371C142.872 36.3624 142.024 36.7115 141.151 36.9803C140.086 37.3241 138.977 37.5 137.861 37.5019C135.244 37.5321 132.664 36.868 130.369 35.5736Z" fill="#0C0C0D"/>
<path d="M146.727 0.390625H149.593V14.7016C150.151 13.4372 150.958 12.3052 151.962 11.3766C152.966 10.4479 154.145 9.74264 155.426 9.30495C156.563 8.90728 157.755 8.6993 158.956 8.6889C160.638 8.69711 162.291 9.13683 163.766 9.96824C165.301 10.8102 166.565 12.1881 167.557 14.102C168.55 16.0159 169.04 18.5677 169.028 21.7575V37.5018H166.17V22.1785C166.17 19.6157 165.795 17.5622 165.045 16.0179C164.294 14.4737 163.314 13.3593 162.103 12.6748C160.889 11.9886 159.523 11.6351 158.138 11.648C157.15 11.6595 156.172 11.8464 155.246 12.2004C154.208 12.5874 153.258 13.1876 152.452 13.9644C151.533 14.8785 150.826 15.9947 150.385 17.2295C149.853 18.5985 149.587 20.2482 149.587 22.1785V37.5018H146.727V0.390625Z" fill="#0C0C0D"/>
<path d="M172.654 8.6828H175.39V37.5019H172.654V8.6828Z" fill="#0C0C0D"/>
<path d="M185.681 35.5736C183.542 34.3757 181.751 32.6129 180.493 30.4665C179.217 28.2803 178.559 25.7714 178.593 23.2217C178.593 20.4084 179.218 17.9072 180.467 15.7182C181.699 13.5465 183.485 11.7627 185.631 10.5597C187.827 9.30844 190.308 8.6828 193.077 8.6828C194.494 8.6828 195.65 8.8197 196.545 9.0935C197.383 9.35411 198.203 9.67104 199 10.0422V13.217C198.179 12.776 197.333 12.3845 196.468 12.0444C195.623 11.7145 194.509 11.5495 193.125 11.5495C190.863 11.5495 188.854 12.0615 187.098 13.0855C185.386 14.0697 183.954 15.4985 182.945 17.2295C181.917 19.0281 181.392 21.084 181.427 23.1704C181.4 25.2194 181.917 27.2371 182.921 29.0065C183.917 30.7417 185.352 32.1651 187.074 33.1238C188.846 34.1314 190.863 34.6352 193.125 34.6352C194.51 34.6352 195.624 34.4524 196.468 34.0869C197.311 33.7214 198.155 33.3305 199 32.9143V35.9371C198.188 36.3627 197.341 36.7119 196.468 36.9803C195.402 37.3243 194.292 37.5002 193.175 37.5019C190.557 37.5324 187.977 36.8683 185.681 35.5736Z" fill="#0C0C0D"/>
<path d="M175.34 3.33336C174.975 3.63606 174.515 3.79091 174.047 3.76871C173.568 3.78683 173.099 3.62312 172.73 3.30872C172.558 3.15758 172.421 2.96811 172.33 2.75465C172.24 2.54119 172.198 2.30933 172.207 2.07661C172.197 1.84386 172.24 1.61195 172.33 1.39847C172.421 1.18498 172.557 0.995535 172.73 0.844494C173.1 0.53231 173.569 0.37082 174.047 0.390667C174.283 0.380273 174.519 0.417911 174.741 0.501425C174.962 0.584939 175.166 0.712687 175.34 0.877351C175.505 1.03787 175.634 1.2326 175.72 1.44859C175.805 1.66458 175.845 1.89687 175.837 2.13C175.848 2.35623 175.809 2.58214 175.723 2.79063C175.637 2.99912 175.506 3.18472 175.34 3.33336Z" fill="#0C0C0D"/>
<path d="M66.334 43.5577H67.6092C68.0709 43.5466 68.5299 43.6325 68.9582 43.8103C69.3141 43.9565 69.6188 44.2099 69.8323 44.5373C70.0415 44.8821 70.147 45.2829 70.1356 45.6893C70.1479 46.0707 70.0432 46.4465 69.8363 46.7633C69.6209 47.0665 69.3209 47.295 68.9762 47.4183C68.5426 47.576 68.0848 47.6511 67.6251 47.6401H66.789V49.6094H66.334V43.5577ZM66.789 47.2109H67.6172C68.1469 47.2389 68.6732 47.1099 69.1338 46.8392C69.3178 46.7132 69.4661 46.5393 69.5635 46.3351C69.661 46.1309 69.7041 45.9039 69.6886 45.677C69.6953 45.3614 69.6068 45.0515 69.4352 44.7898C69.2551 44.5305 69.0044 44.3319 68.7147 44.219C68.3674 44.0815 67.9972 44.0153 67.6251 44.0239H66.789V47.2109Z" fill="#0C0C0D"/>
<path d="M86.6413 49.6095H86.1604L85.6555 48.2624H82.8616L82.3567 49.6095H81.8678L84.2206 43.5578H84.3024L86.6413 49.6095ZM85.4818 47.7942L84.2725 44.5414L83.0452 47.7983L85.4818 47.7942Z" fill="#0C0C0D"/>
<path d="M99.5009 43.5578H100.463C100.888 43.5487 101.311 43.6312 101.704 43.8001C102.045 43.9448 102.334 44.1938 102.533 44.5134C102.731 44.833 102.829 45.2077 102.814 45.5867C102.819 45.8553 102.762 46.1213 102.648 46.3629C102.539 46.5879 102.387 46.7878 102.201 46.9502C102.01 47.1161 101.794 47.2474 101.56 47.3383C101.317 47.4321 101.061 47.4909 100.802 47.5129C100.783 47.5168 100.763 47.5168 100.744 47.5129H100.686L102.814 49.5664V49.6177H102.175L100.054 47.5293C100.036 47.5331 100.018 47.5331 99.9998 47.5293C99.9854 47.5254 99.9703 47.5254 99.9559 47.5293V49.6095H99.5009V43.5578ZM99.9479 47.0858H100.521C100.749 47.0863 100.975 47.0552 101.195 46.9934C101.409 46.9348 101.612 46.8382 101.794 46.7079C101.963 46.5839 102.104 46.4234 102.207 46.2377C102.313 46.0384 102.366 45.8138 102.361 45.5867C102.371 45.2817 102.289 44.9809 102.125 44.7263C101.96 44.4869 101.729 44.3032 101.463 44.1985C101.145 44.071 100.806 44.0095 100.465 44.0178H99.9499L99.9479 47.0858Z" fill="#0C0C0D"/>
<path d="M115.783 43.5578H116.264V49.6095H115.783V43.5578Z" fill="#0C0C0D"/>
<path d="M130.243 49.4698C130.034 49.3879 129.837 49.2752 129.659 49.1351C129.499 49.0099 129.364 48.8553 129.259 48.6792V48.0159C129.378 48.2404 129.534 48.4425 129.718 48.6135C129.889 48.7731 130.084 48.9022 130.295 48.9955C130.494 49.084 130.707 49.1301 130.924 49.131C131.142 49.1324 131.359 49.0833 131.556 48.9872C131.751 48.8904 131.917 48.7397 132.033 48.5519C132.166 48.333 132.231 48.0784 132.221 47.8208C132.234 47.5551 132.17 47.2914 132.037 47.0631C131.91 46.8696 131.734 46.715 131.528 46.6154C131.28 46.4955 131.022 46.3999 130.756 46.33C130.545 46.2665 130.344 46.174 130.157 46.0548C129.98 45.9434 129.83 45.7908 129.72 45.6092C129.606 45.4113 129.55 45.1841 129.557 44.9541C129.55 44.6956 129.614 44.4404 129.74 44.2169C129.86 44.0115 130.032 43.8439 130.237 43.7323C130.452 43.6168 130.691 43.5555 130.934 43.5536C131.117 43.5439 131.301 43.5711 131.475 43.6337C131.616 43.6907 131.75 43.7652 131.874 43.8555C131.972 43.9274 132.065 44.0071 132.151 44.0937V44.6666C132.049 44.5499 131.937 44.4421 131.818 44.3442C131.696 44.2429 131.562 44.1586 131.419 44.0937C131.264 44.0262 131.098 43.9927 130.93 43.9951C130.765 43.9921 130.602 44.0331 130.457 44.1142C130.317 44.1903 130.201 44.3048 130.122 44.4449C130.038 44.5919 129.996 44.7594 129.998 44.9295C129.992 45.0885 130.034 45.2454 130.118 45.3792C130.203 45.5048 130.315 45.6087 130.445 45.6831C130.593 45.768 130.75 45.8335 130.914 45.8782C131.148 45.9462 131.378 46.0299 131.602 46.1287C131.806 46.2173 131.995 46.337 132.163 46.484C132.325 46.6304 132.454 46.8112 132.542 47.0138C132.64 47.2535 132.687 47.5118 132.68 47.7716C132.695 48.1314 132.608 48.4879 132.43 48.7983C132.274 49.0583 132.049 49.267 131.782 49.4C131.514 49.5349 131.22 49.6051 130.922 49.6054C130.689 49.6042 130.459 49.5583 130.243 49.4698Z" fill="#0C0C0D"/>
</svg>
