<svg width="288" height="20" viewBox="0 0 288 20" fill="none" xmlns="http://www.w3.org/2000/svg">
<path d="M9.44477 6.6995C7.71041 6.6995 6.29504 8.11487 6.29504 9.84923C6.29504 11.5836 7.71041 12.999 9.44477 12.999C11.1791 12.999 12.5945 11.5836 12.5945 9.84923C12.5945 8.11487 11.1791 6.6995 9.44477 6.6995ZM18.8916 9.84923C18.8916 8.54492 18.9034 7.25241 18.8302 5.95046C18.7569 4.43821 18.4119 3.09609 17.3061 1.99026C16.1979 0.882059 14.8582 0.53944 13.3459 0.466191C12.0416 0.392941 10.7491 0.404756 9.44713 0.404756C8.14282 0.404756 6.85032 0.392941 5.54836 0.466191C4.03611 0.53944 2.69399 0.884422 1.58816 1.99026C0.47996 3.09845 0.137341 4.43821 0.0640911 5.95046C-0.00915854 7.25478 0.00265595 8.54728 0.00265595 9.84923C0.00265595 11.1512 -0.00915854 12.446 0.0640911 13.748C0.137341 15.2603 0.482323 16.6024 1.58816 17.7082C2.69635 18.8164 4.03611 19.159 5.54836 19.2323C6.85268 19.3055 8.14518 19.2937 9.44713 19.2937C10.7514 19.2937 12.044 19.3055 13.3459 19.2323C14.8582 19.159 16.2003 18.814 17.3061 17.7082C18.4143 16.6 18.7569 15.2603 18.8302 13.748C18.9058 12.446 18.8916 11.1535 18.8916 9.84923ZM9.44477 14.6955C6.76289 14.6955 4.59848 12.5311 4.59848 9.84923C4.59848 7.16735 6.76289 5.00294 9.44477 5.00294C12.1267 5.00294 14.2911 7.16735 14.2911 9.84923C14.2911 12.5311 12.1267 14.6955 9.44477 14.6955ZM14.4895 5.93628C13.8634 5.93628 13.3577 5.43062 13.3577 4.80446C13.3577 4.17829 13.8634 3.67263 14.4895 3.67263C15.1157 3.67263 15.6214 4.17829 15.6214 4.80446C15.6216 4.95314 15.5924 5.10041 15.5356 5.23781C15.4788 5.37521 15.3954 5.50006 15.2903 5.6052C15.1851 5.71033 15.0603 5.7937 14.9229 5.85051C14.7855 5.90732 14.6382 5.93647 14.4895 5.93628Z" fill="white"/>
<path fill-rule="evenodd" clip-rule="evenodd" d="M66.8927 9.90201C66.8927 14.5979 70.3032 18.5027 74.7637 19.2945V12.4727H72.4024V9.84927H74.7637V7.75007C74.7637 5.38877 76.2852 4.07746 78.4371 4.07746C79.1188 4.07746 79.8539 4.18214 80.5355 4.28683V6.70087H79.3289C78.1742 6.70087 77.9121 7.27781 77.9121 8.01297V9.84927H80.4309L80.0113 12.4727H77.9121V19.2945C82.3726 18.5027 85.7831 14.5986 85.7831 9.90201C85.7831 4.67802 81.5328 0.404053 76.3379 0.404053C71.143 0.404053 66.8927 4.67802 66.8927 9.90201Z" fill="white"/>
<path d="M142.404 0.419992C143.434 0.404053 144.458 0.413498 145.481 0.404053C145.543 1.60897 145.977 2.83633 146.859 3.68821C147.739 4.56135 148.984 4.96102 150.196 5.09622V8.26585C149.06 8.22865 147.92 7.99251 146.889 7.5037C146.441 7.30061 146.023 7.03908 145.614 6.77165C145.608 9.07169 145.623 11.3688 145.599 13.6594C145.538 14.7598 145.175 15.8549 144.535 16.7617C143.505 18.2712 141.718 19.2554 139.883 19.2861C138.757 19.3504 137.632 19.0434 136.673 18.4779C135.083 17.5404 133.964 15.8242 133.801 13.9823C133.781 13.5922 133.778 13.2014 133.792 12.811C133.934 11.3133 134.674 9.88048 135.824 8.9058C137.128 7.77054 138.954 7.22977 140.664 7.54974C140.68 8.7157 140.633 9.88048 140.633 11.0464C139.852 10.7938 138.939 10.8646 138.257 11.3387C137.757 11.6676 137.38 12.1515 137.183 12.716C137.02 13.115 137.067 13.5584 137.076 13.9823C137.263 15.274 138.505 16.3597 139.831 16.2422C140.71 16.2327 141.553 15.7227 142.011 14.9759C142.159 14.7143 142.325 14.4469 142.334 14.1393C142.411 12.7313 142.38 11.3292 142.39 9.92121C142.396 6.74804 142.38 3.58372 142.405 0.420583L142.404 0.419992Z" fill="white"/>
<path d="M198.196 9.84927C198.196 13.8816 200.723 17.3244 204.28 18.679C204.193 17.9415 204.101 16.7254 204.3 15.8722C204.47 15.1386 205.402 11.1984 205.402 11.1984C205.402 11.1984 205.121 10.6356 205.121 9.80205C205.121 8.49546 205.878 7.51945 206.822 7.51945C207.625 7.51945 208.012 8.12159 208.012 8.84336C208.012 9.65014 207.498 10.856 207.233 11.9744C207.012 12.9103 207.703 13.6738 208.625 13.6738C210.296 13.6738 211.582 11.9115 211.582 9.36757C211.582 7.11567 209.964 5.54225 207.653 5.54225C204.979 5.54225 203.409 7.54858 203.409 9.62259C203.409 10.4309 203.719 11.2968 204.108 11.7682C204.141 11.8038 204.165 11.8474 204.176 11.8947C204.188 11.9419 204.187 11.9914 204.174 12.0382C204.102 12.3357 203.943 12.9741 203.912 13.1047C203.871 13.2763 203.776 13.3133 203.597 13.2299C202.423 12.6836 201.69 10.967 201.69 9.58796C201.69 6.62137 203.844 3.898 207.901 3.898C211.163 3.898 213.698 6.22231 213.698 9.32821C213.698 12.5687 211.656 15.1772 208.819 15.1772C207.866 15.1772 206.971 14.6813 206.664 14.0965C206.664 14.0965 206.193 15.8926 206.078 16.3318C205.856 17.1851 205.241 18.265 204.859 18.8781C205.739 19.1489 206.673 19.2945 207.641 19.2945C212.857 19.2945 217.086 15.0654 217.086 9.84927C217.086 4.63315 212.857 0.404053 207.641 0.404053C202.425 0.404053 198.196 4.63315 198.196 9.84927Z" fill="white"/>
<path d="M286.633 4.81272C286.509 4.36824 286.266 3.96582 285.931 3.64826C285.587 3.32094 285.164 3.08679 284.704 2.96793C282.982 2.51407 276.084 2.51407 276.084 2.51407C273.208 2.48135 270.332 2.62526 267.474 2.94501C267.014 3.07265 266.593 3.31203 266.247 3.64185C265.908 3.96826 265.662 4.37077 265.534 4.8118C265.226 6.47297 265.076 8.15969 265.087 9.8492C265.076 11.5372 265.225 13.2234 265.534 14.8866C265.66 15.3258 265.904 15.7265 266.245 16.0501C266.585 16.3738 267.008 16.6076 267.474 16.7314C269.219 17.1843 276.084 17.1843 276.084 17.1843C278.963 17.2171 281.842 17.0732 284.704 16.7534C285.164 16.6345 285.587 16.4004 285.931 16.0731C286.27 15.7494 286.512 15.3469 286.633 14.9086C286.949 13.2481 287.103 11.5607 287.092 9.87029C287.116 8.17276 286.962 6.47739 286.633 4.8118V4.81272ZM273.89 12.9886V6.71068L279.63 9.85012L273.89 12.9886Z" fill="white"/>
</svg>
